<svg width="106" height="21" viewBox="0 0 106 21" fill="none" xmlns="http://www.w3.org/2000/svg">
<g clip-path="url(#clip0_120_1003)">
<path d="M24.7982 20.8836C24.9527 20.8836 25.0961 20.7264 25.2285 20.4122C25.383 20.0978 25.4603 19.5813 25.4603 18.8627V2.69471C25.4603 1.97613 25.383 1.47089 25.2285 1.17897C25.0741 0.864592 24.9196 0.696176 24.7651 0.673721H35.6237C37.6321 0.673721 39.21 0.954413 40.3578 1.5158C41.5274 2.05473 42.3551 2.82945 42.8407 3.83994C43.3262 4.82798 43.569 5.98445 43.569 7.30931C43.569 8.70155 43.3151 9.91415 42.8075 10.9471C42.3221 11.9576 41.4944 12.7435 40.3246 13.3049C39.177 13.8439 37.61 14.1133 35.6237 14.1133H29.168V18.8627C29.168 19.5813 29.2453 20.0978 29.3998 20.4122C29.5543 20.7264 29.7088 20.8836 29.8633 20.8836H24.7982ZM30.5254 11.4524H34.9285C36.3631 11.4524 37.4334 11.2727 38.1397 10.9134C38.8459 10.5541 39.3094 10.0601 39.5301 9.43136C39.7729 8.8026 39.8942 8.09526 39.8942 7.30931C39.8942 6.47846 39.7508 5.77112 39.4639 5.18727C39.177 4.60343 38.6694 4.16555 37.9411 3.87363C37.2348 3.55925 36.2307 3.40206 34.9285 3.40206H30.5254C29.8412 3.40206 29.444 3.44697 29.3336 3.53679C29.2233 3.60416 29.168 3.8624 29.168 4.31151V10.5092C29.168 10.9583 29.2233 11.2278 29.3336 11.3176C29.444 11.4074 29.8412 11.4524 30.5254 11.4524Z" fill="white"/>
<path d="M39.0664 20.8836C39.1546 20.8836 39.3091 20.7264 39.5298 20.4122C39.7505 20.0978 40.0374 19.5701 40.3906 18.8289C40.5451 18.4922 40.8099 17.9196 41.1851 17.1111C41.5603 16.3028 42.0017 15.3483 42.5093 14.2481C43.0169 13.1477 43.5466 12.0025 44.0984 10.8124C44.6501 9.59978 45.1687 8.44332 45.6543 7.343C46.1619 6.24267 46.6033 5.27709 46.9785 4.44624C47.3537 3.61539 47.6186 3.03155 47.773 2.69471C48.082 1.97613 48.2476 1.45966 48.2697 1.14529C48.2916 0.830909 48.2476 0.673721 48.1373 0.673721H53.9307C53.8424 0.673721 53.8093 0.830909 53.8314 1.14529C53.8535 1.45966 54.008 1.97613 54.2949 2.69471C54.4494 3.03155 54.7031 3.61539 55.0562 4.44624C55.4094 5.25464 55.8287 6.209 56.3143 7.30931C56.8219 8.40963 57.3406 9.55487 57.8703 10.745C58.4 11.9127 58.9186 13.0467 59.4262 14.147C59.9338 15.2474 60.3752 16.2129 60.7504 17.0438C61.1256 17.8746 61.4014 18.4697 61.5781 18.8289C61.9311 19.5701 62.2512 20.0978 62.5381 20.4122C62.8471 20.7264 63.0789 20.8836 63.2334 20.8836H57.1088C57.3295 20.8388 57.5061 20.6591 57.6385 20.3447C57.793 20.0304 57.7709 19.5251 57.5723 18.8289C57.5281 18.6494 57.4508 18.3911 57.3406 18.0543C57.2301 17.7174 57.1309 17.4704 57.0426 17.3133C56.9102 16.9989 56.7777 16.7744 56.6453 16.6395C56.5129 16.5048 56.3363 16.415 56.1156 16.3701C55.917 16.3253 55.6301 16.3028 55.2549 16.3028H46.7799C46.3605 16.3028 46.0295 16.3253 45.7867 16.3701C45.5439 16.3926 45.3564 16.4712 45.224 16.6059C45.1136 16.7406 45.0033 16.9652 44.8929 17.2796C44.8046 17.549 44.7164 17.8185 44.6281 18.0879C44.5398 18.3575 44.4736 18.6044 44.4294 18.8289C44.2308 19.5701 44.1756 20.0978 44.2639 20.4122C44.3521 20.7264 44.4736 20.8836 44.6281 20.8836H39.0664ZM47.6406 13.6081H54.2949C54.9349 13.6081 55.2879 13.5519 55.3541 13.4397C55.4205 13.3274 55.3873 13.0804 55.2549 12.6986C54.968 11.9801 54.6369 11.2053 54.2617 10.3745C53.8865 9.52118 53.5002 8.67909 53.1031 7.84824C52.7279 6.99494 52.3527 6.18654 51.9775 5.42306C51.6244 4.63712 51.3154 3.95222 51.0504 3.36837H50.9843C50.5207 4.35642 50.0463 5.38937 49.5607 6.46724C49.0752 7.52264 48.6117 8.52191 48.1703 9.46505C47.751 10.3857 47.4089 11.138 47.1441 11.7218C46.8791 12.3057 46.7468 12.5976 46.7468 12.5976C46.5923 12.9569 46.5371 13.2151 46.5812 13.3723C46.6475 13.5295 47.0006 13.6081 47.6406 13.6081Z" fill="white"/>
<path d="M61.435 20.8836C61.5895 20.8836 61.733 20.7264 61.8654 20.4122C62.0199 20.0978 62.0971 19.5813 62.0971 18.8627V2.69471C62.0971 1.97613 62.0199 1.47089 61.8654 1.17897C61.7109 0.864592 61.5564 0.696176 61.4019 0.673721H72.2604C74.3131 0.673721 75.9131 0.931958 77.0608 1.44844C78.2084 1.94246 79.0141 2.66103 79.4774 3.60416C79.9631 4.52483 80.2059 5.64761 80.2059 6.97248C80.2059 7.80333 80.0292 8.62296 79.6762 9.43136C79.3229 10.2398 78.7491 10.9359 77.9547 11.5197C77.1821 12.1036 76.1338 12.4853 74.8096 12.665V12.766C76.2883 13.1702 77.5573 13.9112 78.6168 14.9891C79.6981 16.067 80.6251 17.2458 81.3977 18.5258C81.9053 19.3568 82.3686 19.9518 82.7881 20.3111C83.2073 20.6703 83.5274 20.8613 83.7481 20.8836H76.7959C77.0608 20.8613 77.2705 20.7153 77.425 20.4458C77.6016 20.1539 77.5463 19.6823 77.2594 19.0311C76.7959 17.9532 76.1338 16.9989 75.2731 16.1681C74.4344 15.3147 73.375 14.6523 72.095 14.1807C70.8149 13.6867 69.292 13.4397 67.5264 13.4397H67.1623C66.4781 13.4397 66.0809 13.4958 65.9705 13.6081C65.8602 13.7204 65.8049 14.001 65.8049 14.4502V18.8627C65.8049 19.5813 65.8822 20.0978 66.0367 20.4122C66.1912 20.7264 66.3457 20.8836 66.5002 20.8836H61.435ZM67.1623 10.745H71.2342C72.9998 10.745 74.3241 10.4306 75.2069 9.80187C76.0897 9.15066 76.5311 8.20754 76.5311 6.97248C76.5311 6.14163 76.3545 5.46797 76.0014 4.95149C75.6704 4.41255 75.1407 4.01958 74.4124 3.77258C73.684 3.52557 72.735 3.40206 71.5653 3.40206H67.1623C66.4781 3.40206 66.0809 3.43574 65.9705 3.50312C65.8602 3.57048 65.8049 3.82872 65.8049 4.27782V9.83556C65.8049 10.2847 65.8602 10.5541 65.9705 10.644C66.0809 10.7113 66.4781 10.745 67.1623 10.745Z" fill="white"/>
<path d="M82.9604 20.8836C83.1148 20.8836 83.2693 20.7264 83.4238 20.4122C83.5783 20.0978 83.6556 19.5813 83.6556 18.8627V2.69471C83.6556 1.97613 83.5783 1.47089 83.4238 1.17897C83.2693 0.864592 83.1148 0.696176 82.9604 0.673721H88.0586C87.9041 0.673721 87.7496 0.830909 87.5951 1.14529C87.4406 1.45966 87.3634 1.98737 87.3634 2.7284V8.21876C87.3634 8.71278 87.4296 9.0047 87.5621 9.09452C87.6945 9.18435 88.0807 9.22926 88.7207 9.22926H89.0518C90.067 9.22926 91.1043 8.95979 92.1637 8.42087C93.2231 7.85948 94.1721 7.08476 95.0108 6.09672C95.8494 5.10867 96.4342 3.98591 96.7654 2.7284C96.9639 2.00982 96.9971 1.49335 96.8647 1.17897C96.7543 0.864592 96.6109 0.696176 96.4342 0.673721H103.486C103.265 0.673721 102.934 0.830909 102.493 1.14529C102.051 1.45966 101.599 1.98737 101.135 2.7284C100.561 3.64907 100.043 4.43501 99.5793 5.08622C99.1158 5.73743 98.6633 6.29882 98.2219 6.77039C97.8027 7.24194 97.3392 7.70229 96.8316 8.15139C96.1474 8.73524 95.5404 9.1619 95.0108 9.43136C94.4811 9.70082 94.0838 9.89169 93.819 10.004V10.105C94.3486 10.2173 94.9777 10.4306 95.706 10.745C96.4342 11.0369 97.273 11.5197 98.2219 12.1934C99.3697 13.0242 100.363 13.9786 101.201 15.0564C102.062 16.1118 102.868 17.2683 103.618 18.5258C104.126 19.3568 104.589 19.9629 105.009 20.3447C105.428 20.7041 105.748 20.8836 105.969 20.8836H99.0166C99.2592 20.8836 99.458 20.7377 99.6125 20.4458C99.767 20.1539 99.7227 19.6823 99.4799 19.0311C99.193 18.2003 98.7516 17.3694 98.1557 16.5386C97.5598 15.6852 96.8205 14.9105 95.9377 14.2144C95.0549 13.5183 94.0397 12.9681 92.892 12.5639C91.7443 12.1372 90.4752 11.9239 89.0849 11.9239H88.7207C88.0365 11.9239 87.6393 11.9801 87.5289 12.0923C87.4186 12.1821 87.3634 12.4965 87.3634 13.0355V18.8627C87.3634 19.5813 87.4406 20.0978 87.5951 20.4122C87.7496 20.7264 87.9041 20.8836 88.0586 20.8836H82.9604Z" fill="white"/>
<path d="M6.82628 0.0643768C5.51592 0.0643768 4.14869 0.0729137 2.9745 0.664702C2.0869 1.11204 1.11859 1.93051 0.512923 3.52371C-0.0205836 4.92709 0.0464763 6.54106 0.798616 7.83664C1.59772 9.2131 3.01536 10.5442 5.28941 10.5442H8.56637C9.58697 10.5442 10.6351 10.6044 11.5231 11.1162C12.5288 11.6958 13.6303 12.7187 14.1681 14.344C14.4206 15.1071 14.4539 15.9324 14.2826 16.7184C13.9186 18.3885 12.8497 20.5606 10.4196 20.9431L18.7312 20.8216C20.2822 20.5789 23.225 19.017 22.5887 14.7118C22.4163 13.444 21.2287 10.8355 17.8563 10.5442H13.5215C11.6921 10.3149 8.20047 8.75574 8.86858 4.35342C8.88184 3.38232 9.72758 1.16496 13.0045 0.0643768H6.82628Z" fill="url(#paint0_linear_120_1003)"/>
<path d="M5.4624 20.8839C8.29636 20.8839 10.5937 18.5464 10.5937 15.663C10.5937 12.7796 8.29636 10.4421 5.4624 10.4421C2.62844 10.4421 0.331055 12.7796 0.331055 15.663C0.331055 18.5464 2.62844 20.8839 5.4624 20.8839Z" fill="white"/>
<path d="M17.5977 10.5C20.4562 10.5 22.7734 8.1495 22.7734 5.25C22.7734 2.35051 20.4562 0 17.5977 0C14.7392 0 12.4219 2.35051 12.4219 5.25C12.4219 8.1495 14.7392 10.5 17.5977 10.5Z" fill="white"/>
</g>
<defs>
<linearGradient id="paint0_linear_120_1003" x1="11.421" y1="0.0643768" x2="11.421" y2="20.9431" gradientUnits="userSpaceOnUse">
<stop stop-color="#FE0D02"/>
<stop offset="1" stop-color="#014BC6"/>
</linearGradient>
<clipPath id="clip0_120_1003">
<rect width="106" height="21" fill="white"/>
</clipPath>
</defs>
</svg>
